PathFileType	4	(X/Y/Z)	/Users/niels/Desktop/University/Third Semester/Perception and Action/Exam/Gymnastics Motion Tracking/Code for Gym Tracking/Analyzed Data/Webcam_Backflip/id7_5_trajectory_Sports2D/id7_5_trajectory_Sports2D_px_person00.trc
DataRate	CameraRate	NumFrames	NumMarkers	Units	OrigDataRate	OrigDataStartFrame	OrigNumFrames
29.81132075471698	29.81132075471698	9	22	m	29.81132075471698	19	159
Frame#	Time	Hip			RHip			RKnee			RAnkle			RBigToe			RSmallToe			RHeel			LHip			LKnee			LAnkle			LBigToe			LSmallToe			LHeel			Neck			Head			Nose			RShoulder			RElbow			RWrist			LShoulder			LElbow			LWrist		
		X1	Y1	Z1	X2	Y2	Z2	X3	Y3	Z3	X4	Y4	Z4	X5	Y5	Z5	X6	Y6	Z6	X7	Y7	Z7	X8	Y8	Z8	X9	Y9	Z9	X10	Y10	Z10	X11	Y11	Z11	X12	Y12	Z12	X13	Y13	Z13	X14	Y14	Z14	X15	Y15	Z15	X16	Y16	Z16	X17	Y17	Z17	X18	Y18	Z18	X19	Y19	Z19	X20	Y20	Z20	X21	Y21	Z21	X22	Y22	Z22
19	0.6373417721518987	0.9523752973369342	-0.5199103165218871	0.0	0.9539791292978529	-0.5223766946667361	0.0	1.0379071002522675	-0.558944143483457	0.0	0.9997218467693461	-0.6701525859062446	0.0	1.0196261348093543	-0.7016622311632835	0.0	1.014476849673103	-0.7024687357985723	0.0	0.9885450571613152	-0.6812331500789665	0.0	0.9487373403624587	-0.5160806479612692	0.0	1.0314688937159056	-0.5479585659949548	0.0	1.0010345630597866	-0.6567077900259687	0.0	1.0295393289556487	-0.6826713107279829	0.0	1.0222740765471747	-0.6840005743797561	0.0	0.9877948869058517	-0.6689033375783799	0.0	0.8697016425074947	-0.3951167926047918	0.0	0.8217081946183644	-0.34449695382639284	0.0	0.8662692498982298	-0.35060464688028975	0.0	0.8881024845950899	-0.40203114066706824	0.0	0.9608666981996048	-0.3886719580409253	0.0	1.006993174660957	-0.33598594380307795	0.0	0.8657186099768369	-0.410884166607832	0.0	0.930046198061806	-0.3987247898921762	0.0	0.9516842957649064	-0.35352937321318256	0.0
20	0.6708860759493671	0.9554582378786304	-0.49283863438891734	0.0	0.9583644354572325	-0.4956444582256051	0.0	1.0470699373960928	-0.4945007953945083	0.0	1.0235750045873326	-0.60422683157822	0.0	1.0457970945945334	-0.6301460990573791	0.0	1.0420063380179	-0.6320289182898456	0.0	1.0146195611294082	-0.6165517845879805	0.0	0.9505242767307658	-0.48930215885934386	0.0	1.037518199202597	-0.4839056957351876	0.0	1.0224598908504279	-0.5916421731097843	0.0	1.0530143531208025	-0.6107372169564403	0.0	1.045486659797472	-0.6138522343785552	0.0	1.0123403484343614	-0.605190189054018	0.0	0.8604797227278462	-0.37771883761365804	0.0	0.8078285923691494	-0.33261990706878275	0.0	0.8527282863414873	-0.33277168556593023	0.0	0.8815042891226883	-0.3819199484560347	0.0	0.9548125717485331	-0.3655274696605266	0.0	1.0026985793296446	-0.3134122831572	0.0	0.8560181212525433	-0.3951262610820487	0.0	0.9097846529135047	-0.3866514122631725	0.0	0.9180458310324671	-0.3419615207456314	0.0
21	0.7044303797468354	0.9612992926874514	-0.46809062009337243	0.0	0.9659056319696224	-0.4706640889467296	0.0	1.0468768281103842	-0.4307786360686197	0.0	1.0464975283736269	-0.5340497539811153	0.0	1.0721656396827735	-0.5487838554019027	0.0	1.0700121951680424	-0.5523696078387771	0.0	1.0411326627311923	-0.5479722496995383	0.0	0.9548447394486905	-0.4655101535822694	0.0	1.0337586329577513	-0.42330455329003963	0.0	1.0419359695040784	-0.5242176329301874	0.0	1.0737074569772755	-0.5327682043995945	0.0	1.0665862424572121	-0.5369362103289677	0.0	1.036942364411684	-0.5393091318620843	0.0	0.8540345896529268	-0.3668731735005034	0.0	0.7974325896483386	-0.3295592813388578	0.0	0.8416159160421254	-0.3231172482672533	0.0	0.8774582045806691	-0.3682605389444647	0.0	0.9510509904555231	-0.34808162634131923	0.0	1.0003550901531215	-0.2974132814623335	0.0	0.8512464906043721	-0.38495562764414076	0.0	0.8933080887911666	-0.3798901267325388	0.0	0.8900183690838529	-0.33495099649441545	0.0
22	0.7379746835443037	0.9700421356840012	-0.44432485124276805	0.0	0.9763256199710203	-0.4460027885487613	0.0	1.0369877465918846	-0.37320141218768116	0.0	1.0645174631461274	-0.4631065766501596	0.0	1.0922938726647817	-0.46237982984412734	0.0	1.0924195982149385	-0.4678196914162564	0.0	1.06366470987651	-0.47829907318250303	0.0	0.9617184546590964	-0.44330631989037256	0.0	1.0203434014137214	-0.37106866293905	0.0	1.0557985319612906	-0.4569191355896199	0.0	1.0863720548301123	-0.45286184364896426	0.0	1.0799373105438057	-0.45711529142430574	0.0	1.057523073544601	-0.47327920661828343	0.0	0.8509485837044934	-0.36310559762780115	0.0	0.7911524901925097	-0.33600119440339754	0.0	0.8333561404434554	-0.32264291496711556	0.0	0.8763028463168505	-0.3612355949128332	0.0	0.9491737498164331	-0.3355002619479324	0.0	0.9976413297595731	-0.28576273789104645	0.0	0.8515296654849211	-0.38028297264244737	0.0	0.8843163749546078	-0.3741730931123991	0.0	0.8761549378463857	-0.3283724047498059	0.0
23	0.7715189873417722	0.9807348297555123	-0.42021589572381735	0.0	0.9881315923271226	-0.4204895036585834	0.0	1.0192064431333647	-0.32642286228561557	0.0	1.073912989406722	-0.394824096233743	0.0	1.0999856600411777	-0.37730391628566	0.0	1.1032803377968292	-0.3841744541245143	0.0	1.077678863675596	-0.41006728781438373	0.0	0.9701984182659847	-0.4210423429618887	0.0	0.999356481524587	-0.33041865666771075	0.0	1.0606694858699917	-0.39231205209792713	0.0	1.0864711760361094	-0.37550295782268295	0.0	1.080558195103224	-0.37918129282346785	0.0	1.0695763478928217	-0.40888608096496176	0.0	0.8519674094660319	-0.36619433183440364	0.0	0.7901797846505643	-0.3515661641563528	0.0	0.8287613505634879	-0.33137791420945883	0.0	0.8785188359765556	-0.3604034876211459	0.0	0.948522881840562	-0.3269321979668912	0.0	0.9924762225405731	-0.2769586759346677	0.0	0.856524499247475	-0.38071728990333514	0.0	0.8849283718413412	-0.36685712470478077	0.0	0.8804331290362464	-0.32137642711515224	0.0
24	0.8050632911392405	0.9916252026587371	-0.3951697186900806	0.0	0.999247163821537	-0.3938141164525454	0.0	0.9962870600235204	-0.2933234791582352	0.0	1.0719859847523439	-0.3326375101358486	0.0	1.0909963082353358	-0.30056346296891107	0.0	1.098266094577525	-0.3080277909130095	0.0	1.079634938753786	-0.34602821494511543	0.0	0.9786307351709541	-0.3976853676416883	0.0	0.9738722873788059	-0.3026190946554135	0.0	1.054405694468802	-0.3333933669563977	0.0	1.071414281979698	-0.3057728177627892	0.0	1.0657457637045071	-0.3086677596267917	0.0	1.0694937468225074	-0.34839708784140894	0.0	0.8579130306650102	-0.37511531990227365	0.0	0.7962768611449554	-0.37472505912649545	0.0	0.8291335602092335	-0.3482393556178389	0.0	0.8848100702882561	-0.36479500322538316	0.0	0.9484213301389794	-0.32164113778794684	0.0	0.9837802970735313	-0.2706319318313087	0.0	0.865900981074981	-0.3854726566500771	0.0	0.8942044930743391	-0.35827296002769865	0.0	0.8983868152162708	-0.3165896001303263	0.0
25	0.8386075949367088	1.0007160965637685	-0.3695490479810116	0.0	1.0077293500161673	-0.36671565800162564	0.0	0.9709390971929159	-0.2747437664340132	0.0	1.0574783366495792	-0.28008765172724803	0.0	1.063982503547689	-0.23900692910829754	0.0	1.0756196535654006	-0.24601127407013962	0.0	1.0676542700229799	-0.2896107338399621	0.0	0.9853874666413474	-0.37331128816062537	0.0	0.9475206576064492	-0.2873045570004378	0.0	1.0368520685405351	-0.2833131102245558	0.0	1.0416577150955362	-0.24887558469766533	0.0	1.036188023675401	-0.2510138046999576	0.0	1.0557644049716892	-0.2945852312550176	0.0	0.8695508510717768	-0.3880619607211698	0.0	0.811336895500032	-0.40257298308817413	0.0	0.836113364423746	-0.370995283031254	0.0	0.8958725259228841	-0.3729376721960396	0.0	0.9483655322449738	-0.31908612966357025	0.0	0.9717761824411246	-0.2674996274275532	0.0	0.8795247032516477	-0.39321651430402194	0.0	0.9082461304257244	-0.3504786059111067	0.0	0.9208407349990759	-0.3182628337248526	0.0
26	0.8721518987341772	1.0064415534162479	-0.34445969478215205	0.0	1.0122539364615009	-0.34074992229600987	0.0	0.9457373484879559	-0.26979410454696884	0.0	1.0307344232514222	-0.2405395051021494	0.0	1.0208483729772644	-0.1980845696444796	0.0	1.0365828619645003	-0.20350921655698778	0.0	1.041792980207701	-0.24461283314759705	0.0	0.9896338895966857	-0.3489859784950872	0.0	0.9240545835799271	-0.28300192964402543	0.0	1.0097524068943984	-0.24478569804197947	0.0	1.000528393011598	-0.2090154860767964	0.0	0.995612699910559	-0.21036023937125392	0.0	1.0294722053410976	-0.2501487712524414	0.0	0.8873608294152846	-0.40264104847125753	0.0	0.8364188937185958	-0.43104306659593783	0.0	0.8511166264031571	-0.3964608904823544	0.0	0.911923645675296	-0.3829423152669226	0.0	0.948213996117839	-0.3190765025261164	0.0	0.9577263172423985	-0.26905432976383814	0.0	0.8974701220063667	-0.4021366973338948	0.0	0.923108666962958	-0.3452841142931931	0.0	0.9410167693237741	-0.3291353877708278	0.0
27	0.9056962025316455	1.0080523128869188	-0.3214470584494396	0.0	1.0122686625454604	-0.317756324382609	0.0	0.9233370177630541	-0.2762975190593279	0.0	0.9937352874399364	-0.21662551445689834	0.0	0.9665785954544914	-0.1806090251699139	0.0	0.9852330021291112	-0.18349067705886676	0.0	1.004007133616429	-0.21438717258997111	0.0	0.991357962993927	-0.32627497955812107	0.0	0.9063209902831919	-0.28761492095982777	0.0	0.9758271115999521	-0.21991555706575555	0.0	0.9525439377424383	-0.18879230865576407	0.0	0.9489547778707388	-0.18914660813076145	0.0	0.9936569978803264	-0.21769074528468949	0.0	0.9111273564980354	-0.4162783792428318	0.0	0.8708506879871858	-0.45594579059427215	0.0	0.8745695225259944	-0.42106916817116413	0.0	0.93232424773198	-0.39275709960279986	0.0	0.9483125331814093	-0.32177845494632695	0.0	0.943301483539594	-0.2768082498105916	0.0	0.9198106815627966	-0.4102593100675665	0.0	0.9373992226342732	-0.3437527813866938	0.0	0.9572838004184266	-0.34834188126625376	0.0
